<svg xmlns="http://www.w3.org/2000/svg" viewBox="0 0 493.17 297.62"><defs><style>.cls-1{fill:#293bff;}.cls-2{fill:#ccc;}.cls-3{fill:#fff;}.cls-4{fill:#3d5afe;}.cls-5{fill:#b3bdc2;}.cls-6{fill:#1b3a58;}.cls-7{fill:#2747b2;}.cls-8{fill:#4d4d4d;}.cls-9{fill:#e76b56;}.cls-10{fill:#a1adb3;}.cls-11{fill:#f6bd18;}.cls-12{fill:#f798b3;}.cls-13{fill:#f7b75c;}.cls-14{fill:#f7a196;}.cls-15{fill:#efd5b1;}.cls-16{fill:#111f54;}.cls-17{fill:#2ab0ac;}.cls-18{fill:#a86239;}.cls-19{fill:#7c4818;}.cls-20{fill:#88b1d9;}.cls-21{fill:#8cdef1;}.cls-22{fill:#8c6239;}.cls-23{fill:#566cd3;}.cls-24{fill:#4cd7ed;}</style></defs><title>Hero-img</title><g id="Layer_2" data-name="Layer 2"><g id="Layer_1-2" data-name="Layer 1"><ellipse class="cls-1" cx="246.58" cy="245.92" rx="246.58" ry="51.7"/><polygon class="cls-2" points="116.49 208.3 115.48 208.3 100.09 208.3 100.09 220.49 115.48 220.49 116.49 220.49 131.88 220.49 131.88 208.3 116.49 208.3"/><polygon class="cls-2" points="132.89 207.28 148.28 207.28 148.28 195.09 132.89 195.09 131.88 195.09 116.49 195.09 116.49 207.28 131.88 207.28 132.89 207.28"/><polygon class="cls-2" points="149.3 208.3 148.28 208.3 132.89 208.3 132.89 220.49 148.28 220.49 149.3 220.49 164.68 220.49 164.68 208.3 149.3 208.3"/><polygon class="cls-2" points="131.88 181.88 116.49 181.88 115.48 181.88 100.09 181.88 100.09 194.08 115.48 194.08 116.49 194.08 131.88 194.08 131.88 181.88"/><polygon class="cls-2" points="182.1 208.3 181.09 208.3 165.7 208.3 165.7 220.49 181.09 220.49 182.1 220.49 197.49 220.49 197.49 208.3 182.1 208.3"/><polygon class="cls-2" points="131.88 129.06 116.49 129.06 115.48 129.06 100.09 129.06 100.09 141.25 115.48 141.25 116.49 141.25 131.88 141.25 131.88 129.06"/><polygon class="cls-2" points="132.89 180.87 148.28 180.87 148.28 168.68 132.89 168.68 131.88 168.68 116.49 168.68 116.49 180.87 131.88 180.87 132.89 180.87"/><polygon class="cls-2" points="131.88 102.64 116.49 102.64 115.48 102.64 100.09 102.64 100.09 114.83 115.48 114.83 116.49 114.83 131.88 114.83 131.88 102.64"/><polygon class="cls-2" points="131.88 155.47 116.49 155.47 115.48 155.47 100.09 155.47 100.09 167.66 115.48 167.66 116.49 167.66 131.88 167.66 131.88 155.47"/><polygon class="cls-2" points="132.89 154.46 148.28 154.46 148.28 142.26 132.89 142.26 131.88 142.26 116.49 142.26 116.49 154.46 131.88 154.46 132.89 154.46"/><polygon class="cls-2" points="132.89 128.04 148.28 128.04 148.28 115.85 132.89 115.85 131.88 115.85 116.49 115.85 116.49 128.04 131.88 128.04 132.89 128.04"/><polygon class="cls-2" points="214.9 208.3 213.89 208.3 198.5 208.3 198.5 220.49 213.89 220.49 214.9 220.49 230.29 220.49 230.29 208.3 214.9 208.3"/><polygon class="cls-2" points="395.32 167.66 410.71 167.66 411.73 167.66 427.11 167.66 427.11 155.47 411.73 155.47 410.71 155.47 395.32 155.47 395.32 167.66"/><polygon class="cls-2" points="395.32 194.08 410.71 194.08 411.73 194.08 427.11 194.08 427.11 181.88 411.73 181.88 410.71 181.88 395.32 181.88 395.32 194.08"/><polygon class="cls-2" points="378.92 208.3 377.91 208.3 362.52 208.3 362.52 220.49 377.91 220.49 378.92 220.49 394.31 220.49 394.31 208.3 378.92 208.3"/><polygon class="cls-2" points="394.31 168.68 378.92 168.68 378.92 180.87 394.31 180.87 395.32 180.87 410.71 180.87 410.71 168.68 395.32 168.68 394.31 168.68"/><polygon class="cls-2" points="395.32 220.49 410.71 220.49 411.73 220.49 427.11 220.49 427.11 208.3 411.73 208.3 410.71 208.3 395.32 208.3 395.32 220.49"/><polygon class="cls-2" points="346.12 208.3 345.1 208.3 329.72 208.3 329.72 220.49 345.1 220.49 346.12 220.49 361.51 220.49 361.51 208.3 346.12 208.3"/><polygon class="cls-2" points="247.71 208.3 246.69 208.3 231.31 208.3 231.31 220.49 246.69 220.49 247.71 220.49 263.09 220.49 263.09 208.3 247.71 208.3"/><polygon class="cls-2" points="280.51 208.3 279.5 208.3 264.11 208.3 264.11 220.49 279.5 220.49 280.51 220.49 295.9 220.49 295.9 208.3 280.51 208.3"/><polygon class="cls-2" points="313.31 208.3 312.3 208.3 296.91 208.3 296.91 220.49 312.3 220.49 313.31 220.49 328.7 220.49 328.7 208.3 313.31 208.3"/><polygon class="cls-2" points="394.31 195.09 378.92 195.09 378.92 207.28 394.31 207.28 395.32 207.28 410.71 207.28 410.71 195.09 395.32 195.09 394.31 195.09"/><polygon class="cls-2" points="361.51 36.61 346.12 36.61 346.12 48.8 361.51 48.8 362.52 48.8 377.91 48.8 377.91 36.61 362.52 36.61 361.51 36.61"/><polygon class="cls-2" points="312.3 35.59 313.31 35.59 328.7 35.59 328.7 23.4 313.31 23.4 312.3 23.4 296.91 23.4 296.91 35.59 312.3 35.59"/><polygon class="cls-2" points="377.91 35.59 378.92 35.59 394.31 35.59 394.31 23.4 378.92 23.4 377.91 23.4 362.52 23.4 362.52 35.59 377.91 35.59"/><polygon class="cls-2" points="345.1 35.59 346.12 35.59 361.51 35.59 361.51 23.4 346.12 23.4 345.1 23.4 329.72 23.4 329.72 35.59 345.1 35.59"/><polygon class="cls-2" points="361.51 63.02 346.12 63.02 346.12 75.21 361.51 75.21 362.52 75.21 377.91 75.21 377.91 63.02 362.52 63.02 361.51 63.02"/><polygon class="cls-2" points="362.52 62.01 377.91 62.01 378.92 62.01 394.31 62.01 394.31 49.81 378.92 49.81 377.91 49.81 362.52 49.81 362.52 62.01"/><polygon class="cls-2" points="361.51 115.85 346.12 115.85 346.12 128.04 361.51 128.04 362.52 128.04 377.91 128.04 377.91 115.85 362.52 115.85 361.51 115.85"/><polygon class="cls-2" points="362.52 141.25 377.91 141.25 378.92 141.25 394.31 141.25 394.31 129.06 378.92 129.06 377.91 129.06 362.52 129.06 362.52 141.25"/><polygon class="cls-2" points="361.51 89.44 346.12 89.44 346.12 101.63 361.51 101.63 362.52 101.63 377.91 101.63 377.91 89.44 362.52 89.44 361.51 89.44"/><polygon class="cls-2" points="132.89 101.63 148.28 101.63 148.28 89.44 132.89 89.44 131.88 89.44 116.49 89.44 116.49 101.63 131.88 101.63 132.89 101.63"/><polygon class="cls-2" points="362.52 88.42 377.91 88.42 378.92 88.42 394.31 88.42 394.31 76.23 378.92 76.23 377.91 76.23 362.52 76.23 362.52 88.42"/><polygon class="cls-2" points="362.52 114.83 377.91 114.83 378.92 114.83 394.31 114.83 394.31 102.64 378.92 102.64 377.91 102.64 362.52 102.64 362.52 114.83"/><polygon class="cls-2" points="132.89 48.8 148.28 48.8 148.28 36.61 132.89 36.61 131.88 36.61 116.49 36.61 116.49 48.8 131.88 48.8 132.89 48.8"/><polygon class="cls-2" points="131.88 49.81 116.49 49.81 115.48 49.81 100.09 49.81 100.09 62.01 115.48 62.01 116.49 62.01 131.88 62.01 131.88 49.81"/><polygon class="cls-2" points="131.88 23.4 116.49 23.4 115.48 23.4 100.09 23.4 100.09 35.59 115.48 35.59 116.49 35.59 131.88 35.59 131.88 23.4"/><polygon class="cls-2" points="361.51 142.26 346.12 142.26 346.12 154.46 361.51 154.46 362.52 154.46 377.91 154.46 377.91 142.26 362.52 142.26 361.51 142.26"/><polygon class="cls-2" points="131.88 76.23 116.49 76.23 115.48 76.23 100.09 76.23 100.09 88.42 115.48 88.42 116.49 88.42 131.88 88.42 131.88 76.23"/><polygon class="cls-2" points="246.69 35.59 247.71 35.59 263.09 35.59 263.09 23.4 247.71 23.4 246.69 23.4 231.31 23.4 231.31 35.59 246.69 35.59"/><polygon class="cls-2" points="148.28 35.59 149.3 35.59 164.68 35.59 164.68 23.4 149.3 23.4 148.28 23.4 132.89 23.4 132.89 35.59 148.28 35.59"/><polygon class="cls-2" points="279.5 35.59 280.51 35.59 295.9 35.59 295.9 23.4 280.51 23.4 279.5 23.4 264.11 23.4 264.11 35.59 279.5 35.59"/><polygon class="cls-2" points="213.89 35.59 214.9 35.59 230.29 35.59 230.29 23.4 214.9 23.4 213.89 23.4 198.5 23.4 198.5 35.59 213.89 35.59"/><polygon class="cls-2" points="181.09 35.59 182.1 35.59 197.49 35.59 197.49 23.4 182.1 23.4 181.09 23.4 165.7 23.4 165.7 35.59 181.09 35.59"/><polygon class="cls-2" points="132.89 75.21 148.28 75.21 148.28 63.02 132.89 63.02 131.88 63.02 116.49 63.02 116.49 75.21 131.88 75.21 132.89 75.21"/><polygon class="cls-2" points="99.08 129.06 83.69 129.06 82.67 129.06 67.29 129.06 67.29 141.25 82.67 141.25 83.69 141.25 99.08 141.25 99.08 129.06"/><polygon class="cls-2" points="99.08 155.47 83.69 155.47 82.67 155.47 67.29 155.47 67.29 167.66 82.67 167.66 83.69 167.66 99.08 167.66 99.08 155.47"/><polygon class="cls-2" points="100.09 154.46 115.48 154.46 115.48 142.26 100.09 142.26 99.08 142.26 83.69 142.26 83.69 154.46 99.08 154.46 100.09 154.46"/><polygon class="cls-2" points="99.08 181.88 83.69 181.88 82.67 181.88 67.29 181.88 67.29 194.08 82.67 194.08 83.69 194.08 99.08 194.08 99.08 181.88"/><polygon class="cls-2" points="100.09 75.21 115.48 75.21 115.48 63.02 100.09 63.02 99.08 63.02 83.69 63.02 83.69 75.21 99.08 75.21 100.09 75.21"/><polygon class="cls-2" points="100.09 128.04 115.48 128.04 115.48 115.85 100.09 115.85 99.08 115.85 83.69 115.85 83.69 128.04 99.08 128.04 100.09 128.04"/><polygon class="cls-2" points="100.09 101.63 115.48 101.63 115.48 89.44 100.09 89.44 99.08 89.44 83.69 89.44 83.69 101.63 99.08 101.63 100.09 101.63"/><polygon class="cls-2" points="99.08 76.23 83.69 76.23 82.67 76.23 67.29 76.23 67.29 88.42 82.67 88.42 83.69 88.42 99.08 88.42 99.08 76.23"/><polygon class="cls-2" points="100.09 207.28 115.48 207.28 115.48 195.09 100.09 195.09 99.08 195.09 83.69 195.09 83.69 207.28 99.08 207.28 100.09 207.28"/><polygon class="cls-2" points="99.08 102.64 83.69 102.64 82.67 102.64 67.29 102.64 67.29 114.83 82.67 114.83 83.69 114.83 99.08 114.83 99.08 102.64"/><polygon class="cls-2" points="100.09 180.87 115.48 180.87 115.48 168.68 100.09 168.68 99.08 168.68 83.69 168.68 83.69 180.87 99.08 180.87 100.09 180.87"/><polygon class="cls-2" points="264.11 221.51 263.09 221.51 247.71 221.51 247.71 233.7 263.09 233.7 264.11 233.7 279.5 233.7 279.5 221.51 264.11 221.51"/><polygon class="cls-2" points="296.91 221.51 295.9 221.51 280.51 221.51 280.51 233.7 295.9 233.7 296.91 233.7 312.3 233.7 312.3 221.51 296.91 221.51"/><polygon class="cls-2" points="231.31 221.51 230.29 221.51 214.9 221.51 214.9 233.7 230.29 233.7 231.31 233.7 246.69 233.7 246.69 221.51 231.31 221.51"/><polygon class="cls-2" points="99.08 208.3 83.69 208.3 82.67 208.3 67.29 208.3 67.29 220.49 82.67 220.49 83.69 220.49 99.08 220.49 99.08 208.3"/><polygon class="cls-2" points="329.72 221.51 328.7 221.51 313.31 221.51 313.31 233.7 328.7 233.7 329.72 233.7 345.1 233.7 345.1 221.51 329.72 221.51"/><polygon class="cls-2" points="362.52 221.51 361.51 221.51 346.12 221.51 346.12 233.7 361.51 233.7 362.52 233.7 377.91 233.7 377.91 221.51 362.52 221.51"/><polygon class="cls-2" points="198.5 221.51 197.49 221.51 182.1 221.51 182.1 233.7 197.49 233.7 198.5 233.7 213.89 233.7 213.89 221.51 198.5 221.51"/><polygon class="cls-2" points="100.09 221.51 99.08 221.51 83.69 221.51 83.69 233.7 99.08 233.7 100.09 233.7 115.48 233.7 115.48 221.51 100.09 221.51"/><polygon class="cls-2" points="132.89 221.51 131.88 221.51 116.49 221.51 116.49 233.7 131.88 233.7 132.89 233.7 148.28 233.7 148.28 221.51 132.89 221.51"/><polygon class="cls-2" points="165.7 221.51 164.68 221.51 149.3 221.51 149.3 233.7 164.68 233.7 165.7 233.7 181.09 233.7 181.09 221.51 165.7 221.51"/><polygon class="cls-2" points="230.29 22.39 231.31 22.39 246.69 22.39 246.69 10.19 231.31 10.19 230.29 10.19 214.9 10.19 214.9 22.39 230.29 22.39"/><polygon class="cls-2" points="395.32 62.01 410.71 62.01 411.73 62.01 427.11 62.01 427.11 49.81 411.73 49.81 410.71 49.81 395.32 49.81 395.32 62.01"/><polygon class="cls-2" points="394.31 63.02 378.92 63.02 378.92 75.21 394.31 75.21 395.32 75.21 410.71 75.21 410.71 63.02 395.32 63.02 394.31 63.02"/><polygon class="cls-2" points="395.32 35.59 410.71 35.59 411.73 35.59 427.11 35.59 427.11 23.4 411.73 23.4 410.71 23.4 395.32 23.4 395.32 35.59"/><polygon class="cls-2" points="394.31 36.61 378.92 36.61 378.92 48.8 394.31 48.8 395.32 48.8 410.71 48.8 410.71 36.61 395.32 36.61 394.31 36.61"/><polygon class="cls-2" points="395.32 88.42 410.71 88.42 411.73 88.42 427.11 88.42 427.11 76.23 411.73 76.23 410.71 76.23 395.32 76.23 395.32 88.42"/><polygon class="cls-2" points="394.31 89.44 378.92 89.44 378.92 101.63 394.31 101.63 395.32 101.63 410.71 101.63 410.71 89.44 395.32 89.44 394.31 89.44"/><polygon class="cls-2" points="394.31 115.85 378.92 115.85 378.92 128.04 394.31 128.04 395.32 128.04 410.71 128.04 410.71 115.85 395.32 115.85 394.31 115.85"/><polygon class="cls-2" points="395.32 141.25 410.71 141.25 411.73 141.25 427.11 141.25 427.11 129.06 411.73 129.06 410.71 129.06 395.32 129.06 395.32 141.25"/><polygon class="cls-2" points="394.31 22.39 395.32 22.39 410.71 22.39 410.71 10.19 395.32 10.19 394.31 10.19 378.92 10.19 378.92 22.39 394.31 22.39"/><polygon class="cls-2" points="395.32 114.83 410.71 114.83 411.73 114.83 427.11 114.83 427.11 102.64 411.73 102.64 410.71 102.64 395.32 102.64 395.32 114.83"/><polygon class="cls-2" points="99.08 49.81 83.69 49.81 82.67 49.81 67.29 49.81 67.29 62.01 82.67 62.01 83.69 62.01 99.08 62.01 99.08 49.81"/><polygon class="cls-2" points="164.68 22.39 165.7 22.39 181.09 22.39 181.09 10.19 165.7 10.19 164.68 10.19 149.3 10.19 149.3 22.39 164.68 22.39"/><polygon class="cls-2" points="100.09 22.39 115.48 22.39 115.48 10.19 100.09 10.19 99.08 10.19 83.69 10.19 83.69 22.39 99.08 22.39 100.09 22.39"/><polygon class="cls-2" points="131.88 22.39 132.89 22.39 148.28 22.39 148.28 10.19 132.89 10.19 131.88 10.19 116.49 10.19 116.49 22.39 131.88 22.39"/><polygon class="cls-2" points="99.08 23.4 83.69 23.4 82.67 23.4 67.29 23.4 67.29 35.59 82.67 35.59 83.69 35.59 99.08 35.59 99.08 23.4"/><polygon class="cls-2" points="361.51 22.39 362.52 22.39 377.91 22.39 377.91 10.19 362.52 10.19 361.51 10.19 346.12 10.19 346.12 22.39 361.51 22.39"/><polygon class="cls-2" points="100.09 48.8 115.48 48.8 115.48 36.61 100.09 36.61 99.08 36.61 83.69 36.61 83.69 48.8 99.08 48.8 100.09 48.8"/><polygon class="cls-2" points="295.9 22.39 296.91 22.39 312.3 22.39 312.3 10.19 296.91 10.19 295.9 10.19 280.51 10.19 280.51 22.39 295.9 22.39"/><polygon class="cls-2" points="263.09 22.39 264.11 22.39 279.5 22.39 279.5 10.19 264.11 10.19 263.09 10.19 247.71 10.19 247.71 22.39 263.09 22.39"/><polygon class="cls-2" points="394.31 142.26 378.92 142.26 378.92 154.46 394.31 154.46 395.32 154.46 410.71 154.46 410.71 142.26 395.32 142.26 394.31 142.26"/><polygon class="cls-2" points="197.49 22.39 198.5 22.39 213.89 22.39 213.89 10.19 198.5 10.19 197.49 10.19 182.1 10.19 182.1 22.39 197.49 22.39"/><polygon class="cls-2" points="165.7 101.63 181.09 101.63 181.09 89.44 165.7 89.44 164.68 89.44 149.3 89.44 149.3 101.63 164.68 101.63 165.7 101.63"/><polygon class="cls-2" points="295.9 115.85 280.51 115.85 280.51 128.04 295.9 128.04 296.91 128.04 312.3 128.04 312.3 115.85 296.91 115.85 295.9 115.85"/><polygon class="cls-2" points="296.91 114.83 312.3 114.83 313.31 114.83 328.7 114.83 328.7 102.64 313.31 102.64 312.3 102.64 296.91 102.64 296.91 114.83"/><polygon class="cls-2" points="295.9 89.44 280.51 89.44 280.51 101.63 295.9 101.63 296.91 101.63 312.3 101.63 312.3 89.44 296.91 89.44 295.9 89.44"/><polygon class="cls-2" points="295.9 63.02 280.51 63.02 280.51 75.21 295.9 75.21 296.91 75.21 312.3 75.21 312.3 63.02 296.91 63.02 295.9 63.02"/><polygon class="cls-2" points="296.91 88.42 312.3 88.42 313.31 88.42 328.7 88.42 328.7 76.23 313.31 76.23 312.3 76.23 296.91 76.23 296.91 88.42"/><polygon class="cls-2" points="312.3 62.01 313.31 62.01 328.7 62.01 328.7 49.81 313.31 49.81 312.3 49.81 296.91 49.81 296.91 62.01 312.3 62.01"/><polygon class="cls-2" points="295.9 168.68 280.51 168.68 280.51 180.87 295.9 180.87 296.91 180.87 312.3 180.87 312.3 168.68 296.91 168.68 295.9 168.68"/><polygon class="cls-2" points="264.11 168.68 263.09 168.68 247.71 168.68 247.71 180.87 263.09 180.87 264.11 180.87 279.5 180.87 279.5 168.68 264.11 168.68"/><polygon class="cls-2" points="296.91 167.66 312.3 167.66 313.31 167.66 328.7 167.66 328.7 155.47 313.31 155.47 312.3 155.47 296.91 155.47 296.91 167.66"/><polygon class="cls-2" points="295.9 142.26 280.51 142.26 280.51 154.46 295.9 154.46 296.91 154.46 312.3 154.46 312.3 142.26 296.91 142.26 295.9 142.26"/><polygon class="cls-2" points="296.91 141.25 312.3 141.25 313.31 141.25 328.7 141.25 328.7 129.06 313.31 129.06 312.3 129.06 296.91 129.06 296.91 141.25"/><polygon class="cls-2" points="197.49 129.06 182.1 129.06 181.09 129.06 165.7 129.06 165.7 141.25 181.09 141.25 182.1 141.25 197.49 141.25 197.49 129.06"/><polygon class="cls-2" points="197.49 102.64 182.1 102.64 181.09 102.64 165.7 102.64 165.7 114.83 181.09 114.83 182.1 114.83 197.49 114.83 197.49 102.64"/><polygon class="cls-2" points="197.49 76.23 182.1 76.23 181.09 76.23 165.7 76.23 165.7 88.42 181.09 88.42 182.1 88.42 197.49 88.42 197.49 76.23"/><polygon class="cls-2" points="198.5 101.63 213.89 101.63 213.89 89.44 198.5 89.44 197.49 89.44 182.1 89.44 182.1 101.63 197.49 101.63 198.5 101.63"/><polygon class="cls-2" points="231.31 168.68 230.29 168.68 214.9 168.68 214.9 180.87 230.29 180.87 231.31 180.87 246.69 180.87 246.69 168.68 231.31 168.68"/><polygon class="cls-2" points="198.5 128.04 213.89 128.04 213.89 115.85 198.5 115.85 197.49 115.85 182.1 115.85 182.1 128.04 197.49 128.04 198.5 128.04"/><polygon class="cls-2" points="197.49 49.81 182.1 49.81 181.09 49.81 165.7 49.81 165.7 62.01 181.09 62.01 182.1 62.01 197.49 62.01 197.49 49.81"/><polygon class="cls-2" points="246.69 62.01 247.71 62.01 263.09 62.01 263.09 49.81 247.71 49.81 246.69 49.81 231.31 49.81 231.31 62.01 246.69 62.01"/><polygon class="cls-2" points="213.89 62.01 214.9 62.01 230.29 62.01 230.29 49.81 214.9 49.81 213.89 49.81 198.5 49.81 198.5 62.01 213.89 62.01"/><polygon class="cls-2" points="198.5 75.21 213.89 75.21 213.89 63.02 198.5 63.02 197.49 63.02 182.1 63.02 182.1 75.21 197.49 75.21 198.5 75.21"/><polygon class="cls-2" points="279.5 62.01 280.51 62.01 295.9 62.01 295.9 49.81 280.51 49.81 279.5 49.81 264.11 49.81 264.11 62.01 279.5 62.01"/><polygon class="cls-2" points="263.09 102.64 247.71 102.64 246.69 102.64 231.31 102.64 231.31 114.83 246.69 114.83 247.71 114.83 263.09 114.83 263.09 102.64"/><polygon class="cls-2" points="264.11 167.66 279.5 167.66 280.51 167.66 295.9 167.66 295.9 155.47 280.51 155.47 279.5 155.47 264.11 155.47 264.11 167.66"/><polygon class="cls-2" points="263.09 142.26 247.71 142.26 247.71 154.46 263.09 154.46 264.11 154.46 279.5 154.46 279.5 142.26 264.11 142.26 263.09 142.26"/><polygon class="cls-2" points="264.11 141.25 279.5 141.25 280.51 141.25 295.9 141.25 295.9 129.06 280.51 129.06 279.5 129.06 264.11 129.06 264.11 141.25"/><polygon class="cls-2" points="230.29 155.47 214.9 155.47 213.89 155.47 198.5 155.47 198.5 167.66 213.89 167.66 214.9 167.66 230.29 167.66 230.29 155.47"/><polygon class="cls-2" points="264.11 114.83 279.5 114.83 280.51 114.83 295.9 114.83 295.9 102.64 280.51 102.64 279.5 102.64 264.11 102.64 264.11 114.83"/><polygon class="cls-2" points="247.71 155.47 246.69 155.47 231.31 155.47 231.31 167.66 246.69 167.66 247.71 167.66 263.09 167.66 263.09 155.47 247.71 155.47"/><polygon class="cls-2" points="263.09 129.06 247.71 129.06 246.69 129.06 231.31 129.06 231.31 141.25 246.69 141.25 247.71 141.25 263.09 141.25 263.09 129.06"/><rect class="cls-2" x="428.13" y="234.71" width="11.69" height="9.18"/><polygon class="cls-2" points="263.09 76.23 247.71 76.23 246.69 76.23 231.31 76.23 231.31 88.42 246.69 88.42 247.71 88.42 263.09 88.42 263.09 76.23"/><polygon class="cls-2" points="198.5 154.46 213.89 154.46 213.89 142.26 198.5 142.26 197.49 142.26 182.1 142.26 182.1 154.46 197.49 154.46 198.5 154.46"/><polygon class="cls-2" points="263.09 115.85 247.71 115.85 247.71 128.04 263.09 128.04 264.11 128.04 279.5 128.04 279.5 115.85 264.11 115.85 263.09 115.85"/><polygon class="cls-2" points="231.31 128.04 246.69 128.04 246.69 115.85 231.31 115.85 230.29 115.85 214.9 115.85 214.9 128.04 230.29 128.04 231.31 128.04"/><polygon class="cls-2" points="230.29 102.64 214.9 102.64 213.89 102.64 198.5 102.64 198.5 114.83 213.89 114.83 214.9 114.83 230.29 114.83 230.29 102.64"/><polygon class="cls-2" points="263.09 89.44 247.71 89.44 247.71 101.63 263.09 101.63 264.11 101.63 279.5 101.63 279.5 89.44 264.11 89.44 263.09 89.44"/><polygon class="cls-2" points="230.29 129.06 214.9 129.06 213.89 129.06 198.5 129.06 198.5 141.25 213.89 141.25 214.9 141.25 230.29 141.25 230.29 129.06"/><polygon class="cls-2" points="231.31 101.63 246.69 101.63 246.69 89.44 231.31 89.44 230.29 89.44 214.9 89.44 214.9 101.63 230.29 101.63 231.31 101.63"/><polygon class="cls-2" points="231.31 154.46 246.69 154.46 246.69 142.26 231.31 142.26 230.29 142.26 214.9 142.26 214.9 154.46 230.29 154.46 231.31 154.46"/><polygon class="cls-2" points="264.11 88.42 279.5 88.42 280.51 88.42 295.9 88.42 295.9 76.23 280.51 76.23 279.5 76.23 264.11 76.23 264.11 88.42"/><polygon class="cls-2" points="230.29 76.23 214.9 76.23 213.89 76.23 198.5 76.23 198.5 88.42 213.89 88.42 214.9 88.42 230.29 88.42 230.29 76.23"/><polygon class="cls-2" points="263.09 75.21 264.11 75.21 279.5 75.21 279.5 63.02 264.11 63.02 263.09 63.02 247.71 63.02 247.71 75.21 263.09 75.21"/><polygon class="cls-2" points="231.31 75.21 246.69 75.21 246.69 63.02 231.31 63.02 230.29 63.02 214.9 63.02 214.9 75.21 230.29 75.21 231.31 75.21"/><polygon class="cls-2" points="164.68 76.23 149.3 76.23 148.28 76.23 132.89 76.23 132.89 88.42 148.28 88.42 149.3 88.42 164.68 88.42 164.68 76.23"/><polygon class="cls-2" points="164.68 102.64 149.3 102.64 148.28 102.64 132.89 102.64 132.89 114.83 148.28 114.83 149.3 114.83 164.68 114.83 164.68 102.64"/><polygon class="cls-2" points="197.49 48.8 198.5 48.8 213.89 48.8 213.89 36.61 198.5 36.61 197.49 36.61 182.1 36.61 182.1 48.8 197.49 48.8"/><polygon class="cls-2" points="164.68 129.06 149.3 129.06 148.28 129.06 132.89 129.06 132.89 141.25 148.28 141.25 149.3 141.25 164.68 141.25 164.68 129.06"/><polygon class="cls-2" points="165.7 154.46 181.09 154.46 181.09 142.26 165.7 142.26 164.68 142.26 149.3 142.26 149.3 154.46 164.68 154.46 165.7 154.46"/><polygon class="cls-2" points="164.68 155.47 149.3 155.47 148.28 155.47 132.89 155.47 132.89 167.66 148.28 167.66 149.3 167.66 164.68 167.66 164.68 155.47"/><polygon class="cls-2" points="165.7 75.21 181.09 75.21 181.09 63.02 165.7 63.02 164.68 63.02 149.3 63.02 149.3 75.21 164.68 75.21 165.7 75.21"/><polygon class="cls-2" points="165.7 48.8 181.09 48.8 181.09 36.61 165.7 36.61 164.68 36.61 149.3 36.61 149.3 48.8 164.68 48.8 165.7 48.8"/><polygon class="cls-2" points="164.68 49.81 149.3 49.81 148.28 49.81 132.89 49.81 132.89 62.01 148.28 62.01 149.3 62.01 164.68 62.01 164.68 49.81"/><polygon class="cls-2" points="165.7 180.87 181.09 180.87 181.09 168.68 165.7 168.68 164.68 168.68 149.3 168.68 149.3 180.87 164.68 180.87 165.7 180.87"/><polygon class="cls-2" points="395.32 221.51 394.31 221.51 378.92 221.51 378.92 233.7 394.31 233.7 395.32 233.7 410.71 233.7 410.71 221.51 395.32 221.51"/><polygon class="cls-2" points="362.52 167.66 377.91 167.66 378.92 167.66 394.31 167.66 394.31 155.47 378.92 155.47 377.91 155.47 362.52 155.47 362.52 167.66"/><polygon class="cls-2" points="165.7 128.04 181.09 128.04 181.09 115.85 165.7 115.85 164.68 115.85 149.3 115.85 149.3 128.04 164.68 128.04 165.7 128.04"/><polygon class="cls-2" points="361.51 195.09 346.12 195.09 346.12 207.28 361.51 207.28 362.52 207.28 377.91 207.28 377.91 195.09 362.52 195.09 361.51 195.09"/><polygon class="cls-2" points="329.72 195.09 328.7 195.09 313.31 195.09 313.31 207.28 328.7 207.28 329.72 207.28 345.1 207.28 345.1 195.09 329.72 195.09"/><polygon class="cls-2" points="296.91 195.09 295.9 195.09 280.51 195.09 280.51 207.28 295.9 207.28 296.91 207.28 312.3 207.28 312.3 195.09 296.91 195.09"/><polygon class="cls-2" points="361.51 168.68 346.12 168.68 346.12 180.87 361.51 180.87 362.52 180.87 377.91 180.87 377.91 168.68 362.52 168.68 361.51 168.68"/><polygon class="cls-2" points="362.52 194.08 377.91 194.08 378.92 194.08 394.31 194.08 394.31 181.88 378.92 181.88 377.91 181.88 362.52 181.88 362.52 194.08"/><polygon class="cls-2" points="198.5 195.09 197.49 195.09 182.1 195.09 182.1 207.28 197.49 207.28 198.5 207.28 213.89 207.28 213.89 195.09 198.5 195.09"/><polygon class="cls-2" points="264.11 195.09 263.09 195.09 247.71 195.09 247.71 207.28 263.09 207.28 264.11 207.28 279.5 207.28 279.5 195.09 264.11 195.09"/><polygon class="cls-2" points="165.7 195.09 164.68 195.09 149.3 195.09 149.3 207.28 164.68 207.28 165.7 207.28 181.09 207.28 181.09 195.09 165.7 195.09"/><polygon class="cls-2" points="164.68 181.88 149.3 181.88 148.28 181.88 132.89 181.88 132.89 194.08 148.28 194.08 149.3 194.08 164.68 194.08 164.68 181.88"/><polygon class="cls-2" points="231.31 195.09 230.29 195.09 214.9 195.09 214.9 207.28 230.29 207.28 231.31 207.28 246.69 207.28 246.69 195.09 231.31 195.09"/><polygon class="cls-2" points="329.72 62.01 345.1 62.01 346.12 62.01 361.51 62.01 361.51 49.81 346.12 49.81 345.1 49.81 329.72 49.81 329.72 62.01"/><polygon class="cls-2" points="313.31 181.88 312.3 181.88 296.91 181.88 296.91 194.08 312.3 194.08 313.31 194.08 328.7 194.08 328.7 181.88 313.31 181.88"/><polygon class="cls-2" points="328.7 142.26 313.31 142.26 313.31 154.46 328.7 154.46 329.72 154.46 345.1 154.46 345.1 142.26 329.72 142.26 328.7 142.26"/><polygon class="cls-2" points="329.72 167.66 345.1 167.66 346.12 167.66 361.51 167.66 361.51 155.47 346.12 155.47 345.1 155.47 329.72 155.47 329.72 167.66"/><polygon class="cls-2" points="328.7 168.68 313.31 168.68 313.31 180.87 328.7 180.87 329.72 180.87 345.1 180.87 345.1 168.68 329.72 168.68 328.7 168.68"/><polygon class="cls-2" points="280.51 181.88 279.5 181.88 264.11 181.88 264.11 194.08 279.5 194.08 280.51 194.08 295.9 194.08 295.9 181.88 280.51 181.88"/><polygon class="cls-2" points="329.72 194.08 345.1 194.08 346.12 194.08 361.51 194.08 361.51 181.88 346.12 181.88 345.1 181.88 329.72 181.88 329.72 194.08"/><polygon class="cls-2" points="198.5 180.87 213.89 180.87 213.89 168.68 198.5 168.68 197.49 168.68 182.1 168.68 182.1 180.87 197.49 180.87 198.5 180.87"/><polygon class="cls-2" points="230.29 48.8 231.31 48.8 246.69 48.8 246.69 36.61 231.31 36.61 230.29 36.61 214.9 36.61 214.9 48.8 230.29 48.8"/><polygon class="cls-2" points="247.71 181.88 246.69 181.88 231.31 181.88 231.31 194.08 246.69 194.08 247.71 194.08 263.09 194.08 263.09 181.88 247.71 181.88"/><polygon class="cls-2" points="214.9 181.88 213.89 181.88 198.5 181.88 198.5 194.08 213.89 194.08 214.9 194.08 230.29 194.08 230.29 181.88 214.9 181.88"/><polygon class="cls-2" points="182.1 181.88 181.09 181.88 165.7 181.88 165.7 194.08 181.09 194.08 182.1 194.08 197.49 194.08 197.49 181.88 182.1 181.88"/><polygon class="cls-2" points="328.7 48.8 329.72 48.8 345.1 48.8 345.1 36.61 329.72 36.61 328.7 36.61 313.31 36.61 313.31 48.8 328.7 48.8"/><polygon class="cls-2" points="197.49 155.47 182.1 155.47 181.09 155.47 165.7 155.47 165.7 167.66 181.09 167.66 182.1 167.66 197.49 167.66 197.49 155.47"/><polygon class="cls-2" points="263.09 48.8 264.11 48.8 279.5 48.8 279.5 36.61 264.11 36.61 263.09 36.61 247.71 36.61 247.71 48.8 263.09 48.8"/><polygon class="cls-2" points="295.9 48.8 296.91 48.8 312.3 48.8 312.3 36.61 296.91 36.61 295.9 36.61 280.51 36.61 280.51 48.8 295.9 48.8"/><polygon class="cls-2" points="328.7 63.02 313.31 63.02 313.31 75.21 328.7 75.21 329.72 75.21 345.1 75.21 345.1 63.02 329.72 63.02 328.7 63.02"/><polygon class="cls-2" points="329.72 114.83 345.1 114.83 346.12 114.83 361.51 114.83 361.51 102.64 346.12 102.64 345.1 102.64 329.72 102.64 329.72 114.83"/><polygon class="cls-2" points="329.72 141.25 345.1 141.25 346.12 141.25 361.51 141.25 361.51 129.06 346.12 129.06 345.1 129.06 329.72 129.06 329.72 141.25"/><polygon class="cls-2" points="328.7 115.85 313.31 115.85 313.31 128.04 328.7 128.04 329.72 128.04 345.1 128.04 345.1 115.85 329.72 115.85 328.7 115.85"/><polygon class="cls-2" points="328.7 89.44 313.31 89.44 313.31 101.63 328.7 101.63 329.72 101.63 345.1 101.63 345.1 89.44 329.72 89.44 328.7 89.44"/><polygon class="cls-2" points="329.72 88.42 345.1 88.42 346.12 88.42 361.51 88.42 361.51 76.23 346.12 76.23 345.1 76.23 329.72 76.23 329.72 88.42"/><polygon class="cls-2" points="328.7 22.39 329.72 22.39 345.1 22.39 345.1 10.19 329.72 10.19 328.7 10.19 313.31 10.19 313.31 22.39 328.7 22.39"/><polygon class="cls-2" points="149.3 234.71 148.28 234.71 132.89 234.71 132.89 243.89 164.68 243.89 164.68 234.71 149.3 234.71"/><polygon class="cls-2" points="182.1 234.71 181.09 234.71 165.7 234.71 165.7 243.89 197.49 243.89 197.49 234.71 182.1 234.71"/><polygon class="cls-2" points="214.9 234.71 213.89 234.71 198.5 234.71 198.5 243.89 230.29 243.89 230.29 234.71 214.9 234.71"/><polygon class="cls-2" points="247.71 234.71 246.69 234.71 231.31 234.71 231.31 243.89 263.09 243.89 263.09 234.71 247.71 234.71"/><polygon class="cls-2" points="83.69 234.71 82.67 234.71 67.29 234.71 67.29 243.89 99.08 243.89 99.08 234.71 83.69 234.71"/><rect class="cls-2" x="54.58" y="234.71" width="11.69" height="9.18"/><polygon class="cls-2" points="280.51 234.71 279.5 234.71 264.11 234.71 264.11 243.89 295.9 243.89 295.9 234.71 280.51 234.71"/><polygon class="cls-2" points="116.49 234.71 115.48 234.71 100.09 234.71 100.09 243.89 131.88 243.89 131.88 234.71 116.49 234.71"/><polygon class="cls-2" points="82.67 9.18 83.69 9.18 99.08 9.18 99.08 0 67.29 0 67.29 9.18 82.67 9.18"/><polygon class="cls-2" points="313.31 234.71 312.3 234.71 296.91 234.71 296.91 243.89 328.7 243.89 328.7 234.71 313.31 234.71"/><polygon class="cls-2" points="148.28 9.18 149.3 9.18 164.68 9.18 164.68 0 132.89 0 132.89 9.18 148.28 9.18"/><polygon class="cls-2" points="181.09 9.18 182.1 9.18 197.49 9.18 197.49 0 165.7 0 165.7 9.18 181.09 9.18"/><polygon class="cls-2" points="115.48 9.18 116.49 9.18 131.88 9.18 131.88 0 100.09 0 100.09 9.18 115.48 9.18"/><polygon class="cls-2" points="346.12 234.71 345.1 234.71 329.72 234.71 329.72 243.89 361.51 243.89 361.51 234.71 346.12 234.71"/><rect class="cls-2" x="54.58" width="11.69" height="9.18"/><polygon class="cls-2" points="67.29 233.7 82.67 233.7 82.67 221.51 67.29 221.51 66.27 221.51 54.58 221.51 54.58 233.7 66.27 233.7 67.29 233.7"/><polygon class="cls-2" points="67.29 180.87 82.67 180.87 82.67 168.68 67.29 168.68 66.27 168.68 54.58 168.68 54.58 180.87 66.27 180.87 67.29 180.87"/><polygon class="cls-2" points="67.29 75.21 82.67 75.21 82.67 63.02 67.29 63.02 66.27 63.02 54.58 63.02 54.58 75.21 66.27 75.21 67.29 75.21"/><rect class="cls-2" x="54.58" y="155.47" width="11.69" height="12.19"/><polygon class="cls-2" points="378.92 234.71 377.91 234.71 362.52 234.71 362.52 243.89 394.31 243.89 394.31 234.71 378.92 234.71"/><polygon class="cls-2" points="67.29 154.46 82.67 154.46 82.67 142.26 67.29 142.26 66.27 142.26 54.58 142.26 54.58 154.46 66.27 154.46 67.29 154.46"/><rect class="cls-2" x="54.58" y="129.06" width="11.69" height="12.19"/><rect class="cls-2" x="54.58" y="76.23" width="11.69" height="12.19"/><rect class="cls-2" x="54.58" y="102.64" width="11.69" height="12.19"/><polygon class="cls-2" points="67.29 101.63 82.67 101.63 82.67 89.44 67.29 89.44 66.27 89.44 54.58 89.44 54.58 101.63 66.27 101.63 67.29 101.63"/><polygon class="cls-2" points="67.29 22.39 82.67 22.39 82.67 10.19 67.29 10.19 66.27 10.19 54.58 10.19 54.58 22.39 66.27 22.39 67.29 22.39"/><rect class="cls-2" x="54.58" y="181.88" width="11.69" height="12.19"/><rect class="cls-2" x="54.58" y="208.3" width="11.69" height="12.19"/><polygon class="cls-2" points="67.29 207.28 82.67 207.28 82.67 195.09 67.29 195.09 66.27 195.09 54.58 195.09 54.58 207.28 66.27 207.28 67.29 207.28"/><rect class="cls-2" x="54.58" y="49.81" width="11.69" height="12.19"/><polygon class="cls-2" points="67.29 48.8 82.67 48.8 82.67 36.61 67.29 36.61 66.27 36.61 54.58 36.61 54.58 48.8 66.27 48.8 67.29 48.8"/><rect class="cls-2" x="54.58" y="23.4" width="11.69" height="12.19"/><polygon class="cls-2" points="213.89 9.18 214.9 9.18 230.29 9.18 230.29 0 198.5 0 198.5 9.18 213.89 9.18"/><polygon class="cls-2" points="246.69 9.18 247.71 9.18 263.09 9.18 263.09 0 231.31 0 231.31 9.18 246.69 9.18"/><polygon class="cls-2" points="427.11 36.61 411.73 36.61 411.73 48.8 427.11 48.8 428.13 48.8 439.82 48.8 439.82 36.61 428.13 36.61 427.11 36.61"/><rect class="cls-2" x="428.13" y="49.81" width="11.69" height="12.19"/><polygon class="cls-2" points="427.11 63.02 411.73 63.02 411.73 75.21 427.11 75.21 428.13 75.21 439.82 75.21 439.82 63.02 428.13 63.02 427.11 63.02"/><rect class="cls-2" x="428.13" y="76.23" width="11.69" height="12.19"/><rect class="cls-2" x="428.13" y="23.4" width="11.69" height="12.19"/><polygon class="cls-2" points="427.11 10.19 411.73 10.19 411.73 22.39 427.11 22.39 428.13 22.39 439.82 22.39 439.82 10.19 428.13 10.19 427.11 10.19"/><polygon class="cls-2" points="410.71 9.18 411.73 9.18 427.11 9.18 427.11 0 395.32 0 395.32 9.18 410.71 9.18"/><polygon class="cls-2" points="377.91 9.18 378.92 9.18 394.31 9.18 394.31 0 362.52 0 362.52 9.18 377.91 9.18"/><rect class="cls-2" x="428.13" width="11.69" height="9.18"/><polygon class="cls-2" points="427.11 89.44 411.73 89.44 411.73 101.63 427.11 101.63 428.13 101.63 439.82 101.63 439.82 89.44 428.13 89.44 427.11 89.44"/><polygon class="cls-2" points="427.11 168.68 411.73 168.68 411.73 180.87 427.11 180.87 428.13 180.87 439.82 180.87 439.82 168.68 428.13 168.68 427.11 168.68"/><polygon class="cls-2" points="427.11 195.09 411.73 195.09 411.73 207.28 427.11 207.28 428.13 207.28 439.82 207.28 439.82 195.09 428.13 195.09 427.11 195.09"/><polygon class="cls-2" points="427.11 142.26 411.73 142.26 411.73 154.46 427.11 154.46 428.13 154.46 439.82 154.46 439.82 142.26 428.13 142.26 427.11 142.26"/><rect class="cls-2" x="428.13" y="129.06" width="11.69" height="12.19"/><rect class="cls-2" x="428.13" y="155.47" width="11.69" height="12.19"/><polygon class="cls-2" points="345.1 9.18 346.12 9.18 361.51 9.18 361.51 0 329.72 0 329.72 9.18 345.1 9.18"/><polygon class="cls-2" points="411.73 234.71 410.71 234.71 395.32 234.71 395.32 243.89 427.11 243.89 427.11 234.71 411.73 234.71"/><polygon class="cls-2" points="427.11 221.51 411.73 221.51 411.73 233.7 427.11 233.7 428.13 233.7 439.82 233.7 439.82 221.51 428.13 221.51 427.11 221.51"/><rect class="cls-2" x="428.13" y="102.64" width="11.69" height="12.19"/><rect class="cls-2" x="428.13" y="208.3" width="11.69" height="12.19"/><polygon class="cls-2" points="427.11 115.85 411.73 115.85 411.73 128.04 427.11 128.04 428.13 128.04 439.82 128.04 439.82 115.85 428.13 115.85 427.11 115.85"/><rect class="cls-2" x="428.13" y="181.88" width="11.69" height="12.19"/><polygon class="cls-2" points="312.3 9.18 313.31 9.18 328.7 9.18 328.7 0 296.91 0 296.91 9.18 312.3 9.18"/><polygon class="cls-2" points="67.29 128.04 82.67 128.04 82.67 115.85 67.29 115.85 66.27 115.85 54.58 115.85 54.58 128.04 66.27 128.04 67.29 128.04"/><polygon class="cls-2" points="279.5 9.18 280.51 9.18 295.9 9.18 295.9 0 264.11 0 264.11 9.18 279.5 9.18"/><path class="cls-3" d="M427.11,10.19h12.71v-1H428.13V0h-1V9.18H395.32V0h-1V9.18H362.52V0h-1V9.18H329.72V0h-1V9.18H296.91V0h-1V9.18H264.11V0h-1V9.18H231.31V0h-1V9.18H198.5V0h-1V9.18H165.7V0h-1V9.18H132.89V0h-1V9.18H100.09V0h-1V9.18H67.29V0h-1V9.18H54.58v1H82.67v12.2H54.58v1H66.27V35.59H54.58v1H82.67V48.8H54.58v1H66.27V62H54.58v1H82.67V75.21H54.58v1H66.27V88.42H54.58v1H82.67v12.19H54.58v1H66.27v12.2H54.58v1H82.67V128H54.58v1H66.27v12.19H54.58v1H82.67v12.2H54.58v1H66.27v12.19H54.58v1H82.67v12.19H54.58v1H66.27v12.2H54.58v1H82.67v12.19H54.58v1H66.27v12.19H54.58v1H82.67V233.7H54.58v1H66.27v9.18h1v-9.18H99.08v9.18h1v-9.18h31.79v9.18h1v-9.18h31.79v9.18h1v-9.18h31.79v9.18h1v-9.18h31.79v9.18h1v-9.18h31.78v9.18h1v-9.18H295.9v9.18h1v-9.18H328.7v9.18h1v-9.18h31.79v9.18h1v-9.18h31.79v9.18h1v-9.18h31.79v9.18h1v-9.18h11.69v-1H411.73V221.51h28.09v-1H428.13V208.3h11.69v-1H411.73V195.09h28.09v-1H428.13v-12.2h11.69v-1H411.73V168.68h28.09v-1H428.13V155.47h11.69v-1H411.73v-12.2h28.09v-1H428.13V129.06h11.69v-1H411.73V115.85h28.09v-1H428.13v-12.2h11.69v-1H411.73V89.44h28.09v-1H428.13V76.23h11.69v-1H411.73V63h28.09V62H428.13V49.81h11.69v-1H411.73V36.61h28.09v-1H428.13V23.4h11.69v-1H411.73V10.19Zm-65.6,0h16.4v12.2H346.12V10.19Zm32.8,25.4H362.52V23.4h31.79Zm0,26.42H362.52V49.81h31.79Zm0,26.41H362.52V76.23h31.79Zm0,26.42H362.52v-12.2h31.79Zm0,26.41H362.52V129.06h31.79Zm0,26.41H362.52V155.47h31.79Zm0,26.42H362.52v-12.2h31.79Zm0,26.41H362.52V208.3h31.79ZM100.09,208.3h31.79v12.19H100.09Zm0-26.42h31.79v12.2H100.09Zm0-26.41h31.79v12.19H100.09Zm0-26.41h31.79v12.19H100.09Zm0-26.42h31.79v12.2H100.09Zm0-26.41h31.79V88.42H100.09Zm0-26.42h31.79V62H100.09Zm0-26.41h31.79V35.59H100.09ZM361.51,35.59H329.72V23.4h31.79Zm0,26.42H329.72V49.81h31.79Zm0,26.41H329.72V76.23h31.79Zm0,26.42H329.72v-12.2h31.79Zm0,26.41H329.72V129.06h31.79Zm0,26.41H329.72V155.47h31.79Zm0,26.42H329.72v-12.2h31.79Zm-16.41,13.2H313.31V195.09H345.1Zm-212.21-25.4h31.79v12.2H132.89Zm0-26.41h31.79v12.19H132.89Zm0-26.41h31.79v12.19H132.89Zm0-26.42h31.79v12.2H132.89Zm0-26.41h31.79V88.42H132.89Zm0-26.42h31.79V62H132.89Zm16.41-13.2h31.78V48.8H149.3ZM328.7,62H296.91V49.81H328.7Zm0,26.41H296.91V76.23H328.7Zm0,26.42H296.91v-12.2H328.7Zm0,26.41H296.91V129.06H328.7Zm0,26.41H296.91V155.47H328.7Zm0,26.42H296.91v-12.2H328.7Zm-163-12.2h31.79v12.2H165.7Zm0-26.41h31.79v12.19H165.7Zm0-26.41h31.79v12.19H165.7Zm0-26.42h31.79v12.2H165.7Zm0-26.41h31.79V88.42H165.7Zm0-26.42h31.79V62H165.7ZM295.9,62H264.11V49.81H295.9Zm0,26.41H264.11V76.23H295.9Zm0,26.42H264.11v-12.2H295.9Zm0,26.41H264.11V129.06H295.9Zm0,26.41H264.11V155.47H295.9Zm-16.4,13.21H247.71V168.68H279.5Zm-81-25.4h31.79v12.19H198.5Zm0-26.41h31.79v12.19H198.5Zm0-26.42h31.79v12.2H198.5Zm0-26.41h31.79V88.42H198.5ZM214.9,63h31.79V75.21H214.9Zm48.19,25.4H231.31V76.23h31.78Zm-48.19,1h31.79v12.19H214.9Zm48.19,25.4H231.31v-12.2h31.78Zm-48.19,1h31.79V128H214.9Zm48.19,25.4H231.31V129.06h31.78Zm-48.19,1h31.79v12.2H214.9Zm48.19,25.4H231.31V155.47h31.78Zm-48.19,1h31.79v12.19H214.9Zm64.6-14.22H247.71v-12.2H279.5Zm0-26.42H247.71V115.85H279.5Zm0-26.41H247.71V89.44H279.5Zm0-26.42H247.71V63H279.5ZM263.09,62H231.31V49.81h31.78Zm-32.8,0H198.5V49.81h31.79ZM182.1,63h31.79V75.21H182.1Zm0,26.42h31.79v12.19H182.1Zm0,26.41h31.79V128H182.1Zm0,26.41h31.79v12.2H182.1Zm0,26.42h31.79v12.19H182.1Zm16.4,13.2h31.79v12.2H198.5Zm32.81,0h31.78v12.2H231.31Zm32.8,0H295.9v12.2H264.11Zm48.19-1H280.51V168.68H312.3Zm0-26.41H280.51v-12.2H312.3Zm0-26.42H280.51V115.85H312.3Zm0-26.41H280.51V89.44H312.3Zm0-26.42H280.51V63H312.3Zm0-26.41H280.51V36.61H312.3Zm-32.8,0H247.71V36.61H279.5Zm-32.81,0H214.9V36.61h31.79Zm-32.8,0H182.1V36.61h31.79ZM149.3,63h31.78V75.21H149.3Zm0,26.42h31.78v12.19H149.3Zm0,26.41h31.78V128H149.3Zm0,26.41h31.78v12.2H149.3Zm0,26.42h31.78v12.19H149.3Zm0,26.41h31.78v12.19H149.3Zm32.8,0h31.79v12.19H182.1Zm32.8,0h31.79v12.19H214.9Zm32.81,0H279.5v12.19H247.71Zm32.8,0H312.3v12.19H280.51Zm64.59-14.22H313.31V168.68H345.1Zm0-26.41H313.31v-12.2H345.1Zm0-26.42H313.31V115.85H345.1Zm0-26.41H313.31V89.44H345.1Zm0-26.42H313.31V63H345.1Zm0-26.41H313.31V36.61H345.1ZM328.7,35.59H296.91V23.4H328.7Zm-32.8,0H264.11V23.4H295.9Zm-32.81,0H231.31V23.4h31.78Zm-32.8,0H198.5V23.4h31.79Zm-32.8,0H165.7V23.4h31.79Zm-32.81,0H132.89V23.4h31.79Zm-48.19,1h31.79V48.8H116.49Zm0,26.41h31.79V75.21H116.49Zm0,26.42h31.79v12.19H116.49Zm0,26.41h31.79V128H116.49Zm0,26.41h31.79v12.2H116.49Zm0,26.42h31.79v12.19H116.49Zm0,26.41h31.79v12.19H116.49Zm16.4,13.21h31.79v12.19H132.89Zm32.81,0h31.79v12.19H165.7Zm32.8,0h31.79v12.19H198.5Zm32.81,0h31.78v12.19H231.31Zm32.8,0H295.9v12.19H264.11Zm32.8,0H328.7v12.19H296.91Zm32.81,0h31.79v12.19H329.72Zm48.19-1H346.12V195.09h31.79Zm0-26.41H346.12V168.68h31.79Zm0-26.41H346.12v-12.2h31.79Zm0-26.42H346.12V115.85h31.79Zm0-26.41H346.12V89.44h31.79Zm0-26.42H346.12V63h31.79Zm0-26.41H346.12V36.61h31.79ZM328.7,10.19h16.4v12.2H313.31V10.19Zm-32.8,0h16.4v12.2H280.51V10.19Zm-32.81,0H279.5v12.2H247.71V10.19Zm-32.8,0h16.4v12.2H214.9V10.19Zm-32.8,0h16.4v12.2H182.1V10.19Zm-32.81,0h16.4v12.2H149.3V10.19Zm-32.8,0h16.4v12.2H116.49V10.19Zm-48.19,0h31.79v12.2H83.69Zm-16.4,25.4V23.4H99.08V35.59H67.29Zm16.4,1h31.79V48.8H83.69ZM67.29,62V49.81H99.08V62H67.29Zm16.4,1h31.79V75.21H83.69Zm-16.4,25.4V76.23H99.08V88.42H67.29Zm16.4,1h31.79v12.19H83.69Zm-16.4,25.4v-12.2H99.08v12.2H67.29Zm16.4,1h31.79V128H83.69Zm-16.4,25.4V129.06H99.08v12.19H67.29Zm16.4,1h31.79v12.2H83.69Zm-16.4,25.4V155.47H99.08v12.19H67.29Zm16.4,1h31.79v12.19H83.69Zm-16.4,25.4v-12.2H99.08v12.2H67.29Zm16.4,1h31.79v12.19H83.69Zm-16.4,25.4V208.3H99.08v12.19H67.29Zm32.8,13.21H83.69V221.51h31.79V233.7Zm32.8,0h-16.4V221.51h31.79V233.7Zm32.81,0H149.3V221.51h31.78V233.7Zm32.8,0H182.1V221.51h31.79V233.7Zm32.81,0H214.9V221.51h31.79V233.7Zm32.8,0h-16.4V221.51H279.5V233.7Zm32.8,0h-16.4V221.51H312.3V233.7Zm32.81,0H313.31V221.51H345.1V233.7Zm32.8,0h-16.4V221.51h31.79V233.7Zm48.19,0H378.92V221.51h31.79Zm16.4-25.4v12.19H395.32V208.3h31.79Zm-16.4-1H378.92V195.09h31.79Zm16.4-25.4v12.2H395.32v-12.2h31.79Zm-16.4-1H378.92V168.68h31.79Zm16.4-25.4v12.19H395.32V155.47h31.79Zm-16.4-1H378.92v-12.2h31.79Zm16.4-25.4v12.19H395.32V129.06h31.79Zm-16.4-1H378.92V115.85h31.79Zm16.4-25.4v12.2H395.32v-12.2h31.79Zm-16.4-1H378.92V89.44h31.79Zm16.4-25.4V88.42H395.32V76.23h31.79Zm-16.4-1H378.92V63h31.79Zm16.4-25.4V62H395.32V49.81h31.79Zm-16.4-1H378.92V36.61h31.79Zm16.4-25.4V35.59H395.32V23.4h31.79Zm-16.4-1H378.92V10.19h31.79Z"/><path class="cls-3" d="M406.35,121.9a35.54,35.54,0,0,0-30.53-35.17,35.52,35.52,0,0,0-46.89-32,35.51,35.51,0,0,0-55.5-14.27,35.52,35.52,0,0,0-52.86,0,35.52,35.52,0,0,0-55.51,14.27,35.51,35.51,0,0,0-46.88,32,35.52,35.52,0,0,0,0,70.34,35.51,35.51,0,0,0,46.88,32.05,35.52,35.52,0,0,0,55.51,14.27,35.52,35.52,0,0,0,52.86,0,35.51,35.51,0,0,0,55.5-14.27,35.52,35.52,0,0,0,46.89-32.05A35.52,35.52,0,0,0,406.35,121.9Z"/><path class="cls-3" d="M368.5,233.13l0,.23A.91.91,0,0,0,368.5,233.13Z"/><path class="cls-3" d="M344.71,233.36l0-.23A.91.91,0,0,0,344.71,233.36Z"/><path class="cls-4" d="M356.59,229.51c-6.58,0-11.91,1.62-11.91,3.62l0,.23c.38,1.89,5.55,3.39,11.88,3.39s11.5-1.5,11.88-3.39l0-.23C368.5,231.13,363.17,229.51,356.59,229.51Z"/><path class="cls-5" d="M356.59,236.75c-6.33,0-11.5-1.5-11.88-3.39l2.58,23.16c0,1.57,4.17,2.83,9.3,2.83s9.3-1.26,9.3-2.83l2.58-23.16C368.09,235.25,362.92,236.75,356.59,236.75Z"/><path class="cls-6" d="M356.59,249a5.32,5.32,0,0,1-5.31-5.31v-3.31h.51v3.31a4.8,4.8,0,0,0,9.6,0v-3.31h.51v3.31A5.32,5.32,0,0,1,356.59,249Z"/><path class="cls-6" d="M216.14,230.9l0,.23A1.79,1.79,0,0,0,216.14,230.9Z"/><path class="cls-6" d="M192.35,231.13l0-.23A1.79,1.79,0,0,0,192.35,231.13Z"/><path class="cls-7" d="M204.24,227.28c-6.58,0-11.91,1.62-11.91,3.62l0,.23c.38,1.89,5.56,3.39,11.89,3.39s11.5-1.5,11.88-3.39l0-.23C216.14,228.9,210.81,227.28,204.24,227.28Z"/><path class="cls-5" d="M204.24,234.52c-6.33,0-11.51-1.5-11.89-3.39l2.59,23.16c0,1.57,4.16,2.83,9.3,2.83s9.29-1.26,9.29-2.83l2.59-23.16C215.74,233,210.56,234.52,204.24,234.52Z"/><path class="cls-6" d="M204.24,246.74a5.32,5.32,0,0,1-5.31-5.31v-3.31h.5v3.31a4.81,4.81,0,0,0,9.61,0v-3.31h.5v3.31A5.32,5.32,0,0,1,204.24,246.74Z"/><path class="cls-8" d="M398.67,118v11.45H363.44V118h-.5V266.43h.5V255h35.23v11.46h.51V118Zm0,136.45H363.44V234.14h35.23Zm0-20.83H363.44V213.31h35.23Zm0-20.84H363.44V192.48h35.23Zm0-20.83H363.44V171.65h35.23Zm0-20.83H363.44V150.81h35.23Zm0-20.83H363.44V130h35.23Z"/><path class="cls-9" d="M73.83,230l0,.22A1.64,1.64,0,0,0,73.83,230Z"/><path class="cls-9" d="M50,230.18l0-.22A.83.83,0,0,0,50,230.18Z"/><path class="cls-7" d="M61.92,226.34C55.35,226.34,50,228,50,230l0,.22c.38,1.9,5.55,3.4,11.88,3.4s11.5-1.5,11.89-3.4l0-.22C73.83,228,68.5,226.34,61.92,226.34Z"/><path class="cls-10" d="M61.92,233.58c-6.33,0-11.5-1.5-11.88-3.4l2.59,23.17c0,1.56,4.16,2.83,9.29,2.83s9.3-1.27,9.3-2.83l2.59-23.17C73.42,232.08,68.25,233.58,61.92,233.58Z"/><path class="cls-6" d="M61.92,245.79a5.32,5.32,0,0,1-5.31-5.31v-3.31h.51v3.31a4.8,4.8,0,1,0,9.6,0v-3.31h.51v3.31A5.31,5.31,0,0,1,61.92,245.79Z"/><path class="cls-11" d="M36.49,239.78l0-.22A1.64,1.64,0,0,0,36.49,239.78Z"/><path class="cls-11" d="M60.28,239.56l0,.22A1.64,1.64,0,0,0,60.28,239.56Z"/><path class="cls-4" d="M48.37,235.94c-6.57,0-11.9,1.62-11.9,3.62l0,.22c.38,1.89,5.56,3.4,11.88,3.4s11.51-1.51,11.89-3.4l0-.22C60.28,237.56,55,235.94,48.37,235.94Z"/><path class="cls-5" d="M48.37,243.18c-6.32,0-11.5-1.51-11.88-3.4L39.08,263c0,1.56,4.16,2.83,9.29,2.83s9.3-1.27,9.3-2.83l2.59-23.17C59.88,241.67,54.7,243.18,48.37,243.18Z"/><path class="cls-6" d="M48.37,255.39a5.31,5.31,0,0,1-5.3-5.31v-3.31h.5v3.31a4.81,4.81,0,0,0,9.61,0v-3.31h.5v3.31A5.31,5.31,0,0,1,48.37,255.39Z"/><g id="Design"><g id="MuralImages_Intro_1" data-name="MuralImages/Intro/1"><g id="Nav"><g id="Logo"><path id="Combined-Shape" class="cls-4" d="M123.72,101.7h14.17L148.6,133h.13l10.13-31.33H173v45.56h-9.43V115h-.13l-11.22,32.29H144.5l-11.22-32h-.13v32h-9.43Zm106.88,0h24.69a14.83,14.83,0,0,1,5.55,1,12.65,12.65,0,0,1,4.23,2.71,11.75,11.75,0,0,1,2.7,4,12.73,12.73,0,0,1,.93,4.88,13.7,13.7,0,0,1-1.7,7,10.74,10.74,0,0,1-5.55,4.46v.13a7.79,7.79,0,0,1,3.08,1.56,8.78,8.78,0,0,1,2,2.49,11.84,11.84,0,0,1,1.12,3.16,29.19,29.19,0,0,1,.48,3.45c0,.72.08,1.57.13,2.55s.11,2,.22,3a21.34,21.34,0,0,0,.51,2.9,6.85,6.85,0,0,0,1.06,2.33H260a17.87,17.87,0,0,1-1-5.17q-.19-3-.58-5.74a9,9,0,0,0-2.18-5.23q-1.66-1.67-5.45-1.66H240.67v17.8H230.6Zm10.07,20.61h11a7.67,7.67,0,0,0,5.2-1.53q1.73-1.53,1.73-5c0-2.21-.58-3.82-1.73-4.81a7.78,7.78,0,0,0-5.2-1.5h-11Zm53.05-20.61h10.33l17.12,45.56H310.72l-3.46-10.15H290.13l-3.59,10.15H276.41Zm-1,28h11.87l-5.78-16.72h-.12Zm35.56-27.95h10.07v37.14h22.32v8.42H328.32Zm-116,0h9.16c0,1.36-.08,12.9-.05,36.45a9.14,9.14,0,0,1-9.15,9.13H190.9a9.14,9.14,0,0,1-9.16-9.12c.09-24.21.11-35.75,0-36.46h9.15c.14,3.58.1,12.93,0,36.46h21.33C212.2,115.32,212.24,104.1,212.28,101.7Z"/></g></g></g></g><path class="cls-6" d="M94,175.39l1-11.2h0l3,.2-1-3c-1.39,0,0,.39,0-1s-.39-2,1-2l1-2,2-2c2.86,0,3.37-5.2,4.9-2.78h0A6.65,6.65,0,0,0,99.21,145H96.72a7.1,7.1,0,0,0-7,5.89h0c-2.22,8-5.44,10.7-12.37,13.34-3.53,1.34-5.75,5.94-4.87,10.16C72.49,174.35,80,191.39,94,175.39Z"/><path class="cls-12" d="M98.81,147.72H98l-3,3.89a2.52,2.52,0,0,0,0,5v11.55h5.46v-8.61h.89a4.56,4.56,0,0,0,4.56-4.56v-3.41h0A8.34,8.34,0,0,0,98.81,147.72Z"/><path class="cls-12" d="M118.37,263.56l-4-2.27s-.65-12.16-1.56-26.35h-7.39l5,26.35v5.07h7.23A1.5,1.5,0,0,0,118.37,263.56Z"/><path class="cls-12" d="M93.55,263.56l-4-2.27,2.88-26.35H84.73l.86,31.42h7.23A1.5,1.5,0,0,0,93.55,263.56Z"/><path class="cls-13" d="M112.45,173.21a7.54,7.54,0,0,0-7.4-9H90A19.19,19.19,0,0,0,75.37,171l-2.88,3.38-4.24,5a4,4,0,0,0,.59,5.8l12.28,9.58,2.62-2.53-7.9-9.81,1.86-1.71,5.66-5.22,1.34,6.73,1.84,9.27h0a30.55,30.55,0,0,0-2.78,13.74l1,29.74h28.05c-1.2-18.74-2.83-41-4-43.48h0l3.62-18.25Z"/><polygon class="cls-14" points="83.74 192.2 86.54 191.46 89.62 195.41 86.15 199.13 81.12 194.73 83.74 192.2"/><path class="cls-4" d="M182.1,138.92c-.95,7.22.28,14.92,1.93,15.2s-.11-7,2.26-7.28S185.85,151,188,151s1.56-16.09,1.56-16.09Z"/><path class="cls-4" d="M251.53,105.4c0,5.26,1,12.17-1.3,12.17-1.27,0-1.2-4.77-3.44-5.18s-.14,3-2.1,3-1.28-9.47-1.28-9.47Z"/><path class="cls-4" d="M287.17,142c-.88,4.13.71,13.08-.93,12.94-5.73-.46-3.46-9.5-4.22-12.12S287.17,142,287.17,142Z"/><path class="cls-4" d="M353.57,144.08c0,7.52.16,13.34,1.83,13.36s.81-8,2.51-7.38-.18,5.32,1.67,5.24.87-12.13.87-12.13Z"/><path class="cls-4" d="M262.66,77.4a3.75,3.75,0,0,0-1.21-1.68,3.7,3.7,0,0,0-3.12-.82,2.84,2.84,0,0,0-1.91,1.58A2.28,2.28,0,0,0,256,77a3,3,0,0,0-.08,2.63,3.83,3.83,0,0,0,4.5,2.14A3.56,3.56,0,0,0,262.66,77.4Z"/><path class="cls-4" d="M211.4,161.28c-3.23-1.41-7.12,1.56-6.91,5,.32,5.1,7.61,6.14,9.53,1.51A5.17,5.17,0,0,0,211.4,161.28Z"/><path class="cls-4" d="M171.75,76a6.55,6.55,0,0,0-4.45-5.79c-7.77-2.55-12.16,8.43-4.67,11.73C166.77,83.78,171.9,80.62,171.75,76Z"/><path class="cls-4" d="M334.49,152.88c-1.63-2.21-6.7-2.36-5.93,1.42.55,2.73,5.86,3.92,6.53.7A2.76,2.76,0,0,0,334.49,152.88Z"/><path class="cls-4" d="M295.3,92.83c-1-2-4.42-.28-3.73,1.74C292.45,97.12,296.5,95.14,295.3,92.83Z"/><path class="cls-4" d="M197.69,175.19a3.16,3.16,0,0,0-.16-.46c-1.31-2.73-5.07-.17-3.38,2A2,2,0,0,0,197.69,175.19Z"/><path class="cls-4" d="M351.46,82.16c-2.09-.45-5.1,1.55-4.4,3.92C349,92.81,359.77,84,351.46,82.16Z"/><path class="cls-4" d="M133,142.78c0,5.26,1.16,12.16-1.47,12.16-1.43,0-1.35-4.76-3.88-5.17s-.16,3-2.38,3-1.44-9.46-1.44-9.46Z"/><path class="cls-15" d="M363.4,191.9h6.43v-4.5h-3.5l-3.58,2A1.33,1.33,0,0,0,363.4,191.9Z"/><path class="cls-15" d="M390.67,191.9h6.43v-4.5h-3.5l-3.58,2A1.33,1.33,0,0,0,390.67,191.9Z"/><path class="cls-7" d="M396.25,125.31H376.43c-1.76,3.82-10.1,62.09-10.1,62.09h3.5l14.71-50h3.61l5.45,50h3.5l1.62-49.88a27,27,0,0,0-2.47-12.21Z"/><path class="cls-16" d="M385,87.14l3.73,2.73a2.24,2.24,0,0,1,0,4.47v6.72h7.09a10,10,0,0,1,8.19,4.26l.07.1a6,6,0,0,0,.57-2.7c-6.36-1.48-8.92-9.68-11.81-15.21h0A6.3,6.3,0,0,0,387.2,84H385a5.92,5.92,0,0,0-5.91,5.92h6Z"/><path class="cls-15" d="M388.77,89.87,385,87.14v2.73h-6v3a4,4,0,0,0,4.05,4h.8v4.11h4.85V94.34a2.24,2.24,0,0,0,0-4.47Z"/><path class="cls-17" d="M411.27,115.64l-7.15-10.22-.07-.09a10,10,0,0,0-8.19-4.27H378.75a10,10,0,0,0-9.45,6.74L366,117.38l1.11,4.07a2.6,2.6,0,0,0,4.49,1l0,0,3.37-4.36,1.43,7.22h19.82l2.55-12.85,5.62,5.71-6.32,7.14,2.16,3.35,10-7.12A4.26,4.26,0,0,0,411.27,115.64Z"/><polygon class="cls-15" points="398.1 125.31 396.25 125.31 391.93 127.89 393.51 131.9 398.32 131.9 400.26 128.66 398.1 125.31"/><path class="cls-12" d="M118.37,263.56l-4-2.27s-.65-12.16-1.56-26.35h-7.39l5,26.35v5.07h7.23A1.5,1.5,0,0,0,118.37,263.56Z"/><path class="cls-12" d="M93.55,263.56l-4-2.27,2.88-26.35H84.73l.86,31.42h7.23A1.5,1.5,0,0,0,93.55,263.56Z"/><path class="cls-18" d="M136.33,145.48h7.78a0,0,0,0,1,0,0v0a2.2,2.2,0,0,1-2.2,2.2h-3.38a2.2,2.2,0,0,1-2.2-2.2v0a0,0,0,0,1,0,0Z" transform="translate(59.09 -39.34) rotate(20.16)"/><rect class="cls-19" x="137.64" y="147.41" width="2.2" height="6.39" transform="translate(60.39 -38.58) rotate(20.16)"/><path class="cls-3" d="M142.56,144.91c-.76-.28-.58-.76-1.34-1s-.94.19-1.69-.08-.59-.76-1.35-1a1.31,1.31,0,0,0-.68-.07L137,144.2l7.3,2.68.56-1.51a1.19,1.19,0,0,0-.56-.38C143.49,144.71,143.32,145.19,142.56,144.91Z"/><path class="cls-20" d="M138.64,139.6l-1.14,3.09a1.31,1.31,0,0,1,.68.07c.76.28.59.76,1.35,1s.93-.2,1.69.08.58.75,1.34,1,.93-.2,1.69.08a1.19,1.19,0,0,1,.56.38l1.13-3.09Z"/><polygon class="cls-14" points="134.89 154.16 135.21 150.79 136.77 149.59 140.41 151.84 140.5 153.93 138.15 156.52 134.89 154.16"/><path class="cls-13" d="M134.84,154.14l-11.09,11.3L111.6,166l-2.85.11a5.75,5.75,0,0,0-5,8.07h0a3.27,3.27,0,0,0,3.51,1.9l18-2.92a4,4,0,0,0,2.83-1.74l10.09-14.87Z"/><path class="cls-21" d="M294.86,170c1.8-4.82-5.09-8.09-7.55-3.58a.75.75,0,0,0-.07.12l-4.41,8.33-3.36,8.46a5.21,5.21,0,0,0,7.86,1.26h0a15.78,15.78,0,0,0,4.45-6.38Z"/><polygon class="cls-22" points="277.52 159.4 278.52 156.14 276.59 154.23 272.4 155.02 271.65 156.61 272.78 161.08 277.52 159.4"/><path class="cls-21" d="M283,175.3l-5.47-15.9-4.74,1.68,4.19,21a5.2,5.2,0,0,0,7,3.84h0C286.4,185,283,175.3,283,175.3Z"/><path class="cls-18" d="M341.39,119.21h3.38a2.2,2.2,0,0,1,2.2,2.2v0a0,0,0,0,1,0,0h-7.78a0,0,0,0,1,0,0v0A2.2,2.2,0,0,1,341.39,119.21Z" transform="matrix(-0.56, 0.83, -0.83, -0.56, 635.45, -95.78)"/><rect class="cls-19" x="345.53" y="119.53" width="2.2" height="6.39" transform="translate(643 -94.95) rotate(124.21)"/><path class="cls-3" d="M340.21,120.31c.45-.66,0-1,.49-1.62s.87-.38,1.33-1,0-1,.49-1.62a1.19,1.19,0,0,1,.5-.45l1.34.9L340,122.91l-1.33-.91a1.16,1.16,0,0,1,.23-.63C339.34,120.7,339.76,121,340.21,120.31Z"/><path class="cls-20" d="M340.3,113.72l2.72,1.85a1.19,1.19,0,0,0-.5.45c-.46.67,0,1-.49,1.62s-.88.39-1.33,1,0,1-.49,1.62-.87.39-1.33,1.06a1.16,1.16,0,0,0-.23.63l-2.72-1.85Z"/><path class="cls-17" d="M366.75,115.65l-14.63,4.64.94,3.92,12.8-.38a29.8,29.8,0,0,0,5.06-.64h0c1.95-.2,2.33-4.6,2.33-4.6C373.05,116.26,369,114.94,366.75,115.65Z"/><polygon class="cls-15" points="352.19 120.59 347.93 119.08 345.04 122.29 345.91 125.91 353.13 124.5 352.19 120.59"/><path class="cls-22" d="M308.2,152.47l-2.08-.27.27-2.08L297.66,149l-.71,5.46a4.56,4.56,0,0,0,3.94,5.1l.88.12-.86,6.8h5.49l.78-6.1.08-.65.3-2.27a2.52,2.52,0,1,0,.64-5Z"/><path class="cls-6" d="M306.22,150.11l-.27,2.08,2.08.27a2.52,2.52,0,1,1-.64,5l-.3,2.27a7.1,7.1,0,0,0,0-14.09l-9.06-1.17-.58,4.52h0Z"/><polygon class="cls-23" points="287.3 199.44 281.66 261.1 285.6 261.1 300.24 207.31 307.56 207.31 312.06 261.1 316 261.1 320.5 199.44 287.3 199.44"/><path class="cls-22" d="M278.37,266.16h7.23V261.1h-3.94l-4,2.26A1.5,1.5,0,0,0,278.37,266.16Z"/><path class="cls-22" d="M308.77,266.16H316V261.1h-3.93l-4,2.26A1.5,1.5,0,0,0,308.77,266.16Z"/><path class="cls-21" d="M329.8,184.33l-4-12.43A11.35,11.35,0,0,0,315,164h-22.9c-10.16,0-5.87,22.09-5.87,22.09l1.06,13.35h33.2l.6-7.58,2.29.26A6,6,0,0,0,329.8,184.33Z"/><path class="cls-18" d="M297.82,176.65h3.38a2.2,2.2,0,0,1,2.2,2.2v0a0,0,0,0,1,0,0h-7.78a0,0,0,0,1,0,0v0a2.2,2.2,0,0,1,2.2-2.2Z" transform="translate(590.61 368.94) rotate(-177.39)"/><rect class="cls-19" x="298.21" y="178.84" width="2.2" height="6.39" transform="translate(590.03 377.5) rotate(-177.39)"/><path class="cls-3" d="M298,175.3c.8,0,.83-.47,1.63-.43s.79.54,1.59.58.84-.47,1.64-.43a1.23,1.23,0,0,1,.66.19l-.08,1.61-7.77-.35.07-1.61a1.24,1.24,0,0,1,.67-.14C297.21,174.76,297.19,175.27,298,175.3Z"/><path class="cls-4" d="M303.67,171.92l-.15,3.29a1.23,1.23,0,0,0-.66-.19c-.8,0-.83.47-1.64.43s-.78-.54-1.59-.58-.83.47-1.63.43-.79-.54-1.59-.58a1.24,1.24,0,0,0-.67.14l.15-3.29Z"/><polygon class="cls-22" points="302.61 188.84 304.34 183.98 300.81 181.31 297.62 182.69 296.24 186.57 302.61 188.84"/><rect class="cls-24" x="305.75" y="182.59" width="16.17" height="0.51" transform="translate(-16.94 32.8) rotate(-5.83)"/><rect class="cls-24" x="311.32" y="183.42" width="0.51" height="14.57" transform="translate(83.99 476.45) rotate(-82.93)"/></g></g></svg>