<svg width="30" height="30" viewBox="0 0 30 30" fill="none" xmlns="http://www.w3.org/2000/svg">
<path d="M6.25 8.75H23.75C24.5 8.75 25 8.25 25 7.5C25 6.75 24.5 6.25 23.75 6.25H6.25C5.5 6.25 5 6.75 5 7.5C5 8.25 5.5 8.75 6.25 8.75ZM6.25 16.25H23.75C24.5 16.25 25 15.75 25 15C25 14.25 24.5 13.75 23.75 13.75H6.25C5.5 13.75 5 14.25 5 15C5 15.75 5.5 16.25 6.25 16.25ZM6.25 23.75H23.75C24.5 23.75 25 23.25 25 22.5C25 21.75 24.5 21.25 23.75 21.25H6.25C5.5 21.25 5 21.75 5 22.5C5 23.25 5.5 23.75 6.25 23.75Z" fill="#6C6C6C"/>
</svg>
