<?xml version="1.0" encoding="utf-8"?><!-- Generator: Adobe Illustrator 15.0.0, SVG Export Plug-In . SVG Version: 6.00 Build 0)  --><!DOCTYPE svg PUBLIC "-//W3C//DTD SVG 1.1//EN" "http://www.w3.org/Graphics/SVG/1.1/DTD/svg11.dtd"><svg xmlns="http://www.w3.org/2000/svg" xmlns:xlink="http://www.w3.org/1999/xlink" viewBox="0 0 50 50" width="25px" height="25px"><path fill="#6C6C6C" d="M33.266,33.738C32.425,35.972,30.218,39,26,39c-4.224,0-6.444-2.961-7.319-5.218c-4.155,2.56-12.617,3.346-12.617,12.221h39.873C45.937,36.9,37.493,36.261,33.266,33.738z"/><path fill="#6C6C6C" d="M16.662,20.4c0.314,2.308,1.259,2.938,1.783,2.938c0.21,1.574,0.945,3.252,1.679,4.302c0.524,0.734,0.734,1.679,0.734,2.623c0,0.839,0,0.292-0.105,1.236c-0.104,0.306-0.252,0.586-0.437,0.847C20.529,33.154,21.766,37,26,37c4.334,0,5.486-4.159,5.61-4.662c-0.194-0.258-0.353-0.535-0.469-0.838c-0.105-1.153-0.105-0.607-0.105-1.551c0-0.839,0.314-1.574,0.735-2.204c0.734-1.05,1.469-2.833,1.678-4.407c0.631,0,1.574-0.63,1.784-2.938c0.105-1.259-0.419-1.994-0.839-2.204c1.049-2.938,3.043-12.067-3.673-13.011c-0.734-1.259-2.519-1.889-4.826-1.889c-9.339,0.21-10.388,7.03-8.395,14.9C17.186,18.407,16.556,19.141,16.662,20.4z"/></svg>